REM DIRINDEX 1\5,1\2\6,1\2\7,1\3\8,1\3\9,1\4\10,1\4\11,1\4\12
REM DIRNAME cjc026,folder01,folder02,folder03,folder04,folder05,folder06,folder07,folder08,folder09,folder10,folder11
TITLE ""
FILE "EJE_DB3000_5th_5C_08.mp3" MP3
  TRACK 01 AUDIO
    TITLE "0:"
    INDEX 01 00:00:00
  TRACK 02 AUDIO
    TITLE "10:cjc026_10404"
    INDEX 01 00:00:08
  TRACK 03 AUDIO
    TITLE "0:"
    INDEX 01 00:01:27
  TRACK 04 AUDIO
    TITLE "11:cjc026_10405"
    INDEX 01 00:01:62
  TRACK 05 AUDIO
    TITLE "0:"
    INDEX 01 00:03:26
  TRACK 06 AUDIO
    TITLE "12:cjc026_10406"
    INDEX 01 00:03:61
  TRACK 07 AUDIO
    TITLE "0:"
    INDEX 01 00:05:08
  TRACK 08 AUDIO
    TITLE "10:cjc026_10407"
    INDEX 01 00:05:40
  TRACK 09 AUDIO
    TITLE "0:"
    INDEX 01 00:06:57
  TRACK 10 AUDIO
    TITLE "11:cjc026_10408"
    INDEX 01 00:07:17
  TRACK 11 AUDIO
    TITLE "0:"
    INDEX 01 00:08:37
  TRACK 12 AUDIO
    TITLE "12:cjc026_10409"
    INDEX 01 00:08:72
  TRACK 13 AUDIO
    TITLE "0:"
    INDEX 01 00:10:11
  TRACK 14 AUDIO
    TITLE "10:cjc026_10410"
    INDEX 01 00:10:46
  TRACK 15 AUDIO
    TITLE "0:"
    INDEX 01 00:11:63
  TRACK 16 AUDIO
    TITLE "11:cjc026_10411"
    INDEX 01 00:12:23
  TRACK 17 AUDIO
    TITLE "0:"
    INDEX 01 00:13:56
  TRACK 18 AUDIO
    TITLE "12:cjc026_10412"
    INDEX 01 00:14:16
  TRACK 19 AUDIO
    TITLE "0:"
    INDEX 01 00:15:33
  TRACK 20 AUDIO
    TITLE "10:cjc026_10413"
    INDEX 01 00:15:71
  TRACK 21 AUDIO
    TITLE "0:"
    INDEX 01 00:17:15
  TRACK 22 AUDIO
    TITLE "11:cjc026_10414"
    INDEX 01 00:17:53
  TRACK 23 AUDIO
    TITLE "0:"
    INDEX 01 00:18:72
  TRACK 24 AUDIO
    TITLE "12:cjc026_10415"
    INDEX 01 00:19:35
  TRACK 25 AUDIO
    TITLE "0:"
    INDEX 01 00:20:57
  TRACK 26 AUDIO
    TITLE "10:cjc026_10416"
    INDEX 01 00:21:18
  TRACK 27 AUDIO
    TITLE "0:"
    INDEX 01 00:23:03
  TRACK 28 AUDIO
    TITLE "11:cjc026_10417"
    INDEX 01 00:23:35
  TRACK 29 AUDIO
    TITLE "0:"
    INDEX 01 00:24:73
  TRACK 30 AUDIO
    TITLE "12:cjc026_10418"
    INDEX 01 00:25:31
  TRACK 31 AUDIO
    TITLE "0:"
    INDEX 01 00:27:13
  TRACK 32 AUDIO
    TITLE "10:cjc026_10419"
    INDEX 01 00:27:48
  TRACK 33 AUDIO
    TITLE "0:"
    INDEX 01 00:28:68
  TRACK 34 AUDIO
    TITLE "11:cjc026_10420"
    INDEX 01 00:29:30
  TRACK 35 AUDIO
    TITLE "0:"
    INDEX 01 00:30:61
  TRACK 36 AUDIO
    TITLE "12:cjc026_10421"
    INDEX 01 00:31:24
  TRACK 37 AUDIO
    TITLE "0:"
    INDEX 01 00:32:43
  TRACK 38 AUDIO
    TITLE "10:cjc026_10422"
    INDEX 01 00:33:03
  TRACK 39 AUDIO
    TITLE "0:"
    INDEX 01 00:34:33
  TRACK 40 AUDIO
    TITLE "11:cjc026_10423"
    INDEX 01 00:34:69
  TRACK 41 AUDIO
    TITLE "0:"
    INDEX 01 00:36:18
  TRACK 42 AUDIO
    TITLE "12:cjc026_10424"
    INDEX 01 00:36:54
  TRACK 43 AUDIO
    TITLE "0:"
    INDEX 01 00:38:06
  TRACK 44 AUDIO
    TITLE "10:cjc026_10425"
    INDEX 01 00:38:41
  TRACK 45 AUDIO
    TITLE "0:"
    INDEX 01 00:39:58
  TRACK 46 AUDIO
    TITLE "11:cjc026_10426"
    INDEX 01 00:40:18
  TRACK 47 AUDIO
    TITLE "0:"
    INDEX 01 00:41:70
  TRACK 48 AUDIO
    TITLE "12:cjc026_10427"
    INDEX 01 00:42:30
  TRACK 49 AUDIO
    TITLE "0:"
    INDEX 01 00:43:47
  TRACK 50 AUDIO
    TITLE "10:cjc026_10428"
    INDEX 01 00:44:07
  TRACK 51 AUDIO
    TITLE "0:"
    INDEX 01 00:45:13
  TRACK 52 AUDIO
    TITLE "11:cjc026_10429"
    INDEX 01 00:45:51
  TRACK 53 AUDIO
    TITLE "0:"
    INDEX 01 00:46:73
  TRACK 54 AUDIO
    TITLE "12:cjc026_10430"
    INDEX 01 00:47:33
  TRACK 55 AUDIO
    TITLE "0:"
    INDEX 01 00:48:39
  TRACK 56 AUDIO
    TITLE "10:cjc026_10431"
    INDEX 01 00:48:74
  TRACK 57 AUDIO
    TITLE "0:"
    INDEX 01 00:50:13
  TRACK 58 AUDIO
    TITLE "11:cjc026_10432"
    INDEX 01 00:50:51
  TRACK 59 AUDIO
    TITLE "0:"
    INDEX 01 00:52:20
  TRACK 60 AUDIO
    TITLE "12:cjc026_10433"
    INDEX 01 00:52:55
  TRACK 61 AUDIO
    TITLE "0:"
    INDEX 01 00:53:69
  TRACK 62 AUDIO
    TITLE "10:cjc026_10434"
    INDEX 01 00:54:29
  TRACK 63 AUDIO
    TITLE "0:"
    INDEX 01 00:55:54
  TRACK 64 AUDIO
    TITLE "11:cjc026_10435"
    INDEX 01 00:56:17
  TRACK 65 AUDIO
    TITLE "0:"
    INDEX 01 00:57:55
  TRACK 66 AUDIO
    TITLE "12:cjc026_10436"
    INDEX 01 00:58:15
  TRACK 67 AUDIO
    TITLE "0:"
    INDEX 01 00:59:40
  TRACK 68 AUDIO
    TITLE "10:cjc026_10437"
    INDEX 01 01:00:03
  TRACK 69 AUDIO
    TITLE "0:"
    INDEX 01 01:01:15
  TRACK 70 AUDIO
    TITLE "11:cjc026_10438"
    INDEX 01 01:01:50
  TRACK 71 AUDIO
    TITLE "0:"
    INDEX 01 01:03:05
  TRACK 72 AUDIO
    TITLE "12:cjc026_10439"
    INDEX 01 01:03:37
  TRACK 73 AUDIO
    TITLE "0:"
    INDEX 01 01:04:51
  TRACK 74 AUDIO
    TITLE "10:cjc026_10440"
    INDEX 01 01:05:12
  TRACK 75 AUDIO
    TITLE "0:"
    INDEX 01 01:06:42
  TRACK 76 AUDIO
    TITLE "11:cjc026_10441"
    INDEX 01 01:07:02
  TRACK 77 AUDIO
    TITLE "0:"
    INDEX 01 01:08:27
  TRACK 78 AUDIO
    TITLE "12:cjc026_10442"
    INDEX 01 01:08:62
  TRACK 79 AUDIO
    TITLE "0:"
    INDEX 01 01:10:20
  TRACK 80 AUDIO
    TITLE "10:cjc026_10443"
    INDEX 01 01:10:52
  TRACK 81 AUDIO
    TITLE "0:"
    INDEX 01 01:12:13
  TRACK 82 AUDIO
    TITLE "11:cjc026_10444"
    INDEX 01 01:12:43
  TRACK 83 AUDIO
    TITLE "0:"
    INDEX 01 01:13:68
  TRACK 84 AUDIO
    TITLE "12:cjc026_10445"
    INDEX 01 01:14:25
  TRACK 85 AUDIO
    TITLE "0:"
    INDEX 01 01:15:58
